# xmcd
#
# Track frame offsets: 
#        150
#        13850
#        25805
#        36535
#        48975
#        60812
#        73775
#        84267
#        97070
#        109950
#
# Disc length: 1648 seconds
#
# Revision: 2
# Processed by: cddbd v1.5.2PL0 Copyright (c) Steve Scherf et al.
# Submitted via: ExactAudioCopyFreeDBPlugin 1.0
#
DISCID=80066e0a
DTITLE=Jim Reeves and Patsy Cline - Greatest Hits
DYEAR=1900
DGENRE=Country
TTITLE0=Have You Ever Been Lonely (Jim&Patsy)
TTITLE1=Welcome To My World (jim)
TTITLE2=He'll Have To Go (Jim)
TTITLE3=Crazy (Patsy)
TTITLE4=Sweet Dreams (Of You) (Patsy)
TTITLE5=Four Walls (Jim)
TTITLE6=Am I Losing You (Jim)
TTITLE7=Golden Memories And Silver Tears (Jim)
TTITLE8=I Fall To Pieces (Patsy)
TTITLE9=She's Got You (Patsy)
EXTD=
EXTT0=
EXTT1=
EXTT2=
EXTT3=
EXTT4=
EXTT5=
EXTT6=
EXTT7=
EXTT8=
EXTT9=
PLAYORDER=
